<svg id="Layer_1" data-name="Layer 1" xmlns="http://www.w3.org/2000/svg" xmlns:xlink="http://www.w3.org/1999/xlink" viewBox="0 0 558 303.96"><defs><style>.cls-1,.cls-10,.cls-11,.cls-12,.cls-2,.cls-9{fill:none;}.cls-2{stroke:#010101;}.cls-10,.cls-11,.cls-12,.cls-2,.cls-9{stroke-linecap:round;stroke-linejoin:round;}.cls-2,.cls-9{stroke-width:0.75px;}.cls-3,.cls-4,.cls-6{font-size:9px;font-family:ArialMT, Arial;}.cls-3{fill:#e52125;}.cls-4,.cls-8{fill:#2f5fac;}.cls-5{clip-path:url(#clip-path);}.cls-6{fill:#010101;}.cls-7{letter-spacing:0.02em;}.cls-11,.cls-9{stroke:#2f5fac;}.cls-10,.cls-12{stroke:#e52125;}.cls-10,.cls-11,.cls-12{stroke-width:1.5px;}.cls-10{stroke-dasharray:0 6;}.cls-13{clip-path:url(#clip-path-4);}.cls-14{clip-path:url(#clip-path-7);}.cls-15{fill:#08a0d1;}.cls-16{clip-path:url(#clip-path-10);}</style><clipPath id="clip-path" transform="translate(-9 -11.04)"><rect class="cls-1" x="38.47" y="16.32" width="219.72" height="130.2"/></clipPath><clipPath id="clip-path-4" transform="translate(-9 -11.04)"><rect class="cls-1" x="319.17" y="16.32" width="219.72" height="130.2"/></clipPath><clipPath id="clip-path-7" transform="translate(-9 -11.04)"><rect class="cls-1" x="38.64" y="171.39" width="219.56" height="130.11"/></clipPath><clipPath id="clip-path-10" transform="translate(-9 -11.04)"><rect class="cls-1" x="319.17" y="171.3" width="219.71" height="130.2"/></clipPath></defs><line class="cls-2" x1="29.47" y1="132.76" x2="29.47" y2="5.29"/><line class="cls-2" x1="29.47" y1="132.76" x2="25.4" y2="132.76"/><line class="cls-2" x1="29.47" y1="114.55" x2="25.4" y2="114.55"/><line class="cls-2" x1="29.47" y1="96.34" x2="25.4" y2="96.34"/><line class="cls-2" x1="29.47" y1="78.13" x2="25.4" y2="78.13"/><line class="cls-2" x1="29.47" y1="59.92" x2="25.4" y2="59.92"/><line class="cls-2" x1="29.47" y1="41.71" x2="25.4" y2="41.71"/><line class="cls-2" x1="29.47" y1="23.5" x2="25.4" y2="23.5"/><line class="cls-2" x1="29.47" y1="5.29" x2="25.4" y2="5.29"/><text class="cls-3" transform="translate(17.56 135.19)">0</text><text class="cls-3" transform="translate(13.79 116.98)">10</text><text class="cls-3" transform="translate(13.79 98.77)">20</text><text class="cls-3" transform="translate(13.79 80.56)">30</text><text class="cls-3" transform="translate(13.79 62.35)">40</text><text class="cls-3" transform="translate(13.79 44.14)">50</text><line class="cls-2" x1="249.18" y1="132.76" x2="249.18" y2="5.29"/><line class="cls-2" x1="249.18" y1="132.76" x2="253.25" y2="132.76"/><line class="cls-2" x1="249.18" y1="114.55" x2="253.25" y2="114.55"/><line class="cls-2" x1="249.18" y1="96.34" x2="253.25" y2="96.34"/><line class="cls-2" x1="249.18" y1="78.13" x2="253.25" y2="78.13"/><line class="cls-2" x1="249.18" y1="59.92" x2="253.25" y2="59.92"/><line class="cls-2" x1="249.18" y1="41.71" x2="253.25" y2="41.71"/><line class="cls-2" x1="249.18" y1="23.5" x2="253.25" y2="23.5"/><line class="cls-2" x1="249.18" y1="5.29" x2="253.25" y2="5.29"/><text class="cls-4" transform="translate(257.32 135.19)">0</text><text class="cls-4" transform="translate(257.32 116.98)">20</text><text class="cls-4" transform="translate(257.32 98.77)">40</text><text class="cls-4" transform="translate(257.32 80.56)">60</text><text class="cls-4" transform="translate(257.32 62.35)">80</text><text class="cls-4" transform="translate(257.32 44.14)">100</text><text class="cls-4" transform="translate(257.32 25.93)">300</text><text class="cls-4" transform="translate(257.32 7.72)">500</text><text class="cls-3" transform="translate(5.06 35.04)">°C</text><text class="cls-4" transform="translate(262.3 35.04)">mm</text><g class="cls-5"><line class="cls-2" x1="29.47" y1="132.76" x2="249.18" y2="132.76"/><line class="cls-2" x1="29.47" y1="41.71" x2="249.18" y2="41.71"/></g><text class="cls-6" transform="translate(34.3 13.12)">Mo<tspan class="cls-7" x="12.5" y="0">r</tspan><tspan x="15.72" y="0">ni Hills (300−1500 m)</tspan></text><text class="cls-6" transform="translate(166.56 12.35)"><tspan xml:space="preserve">22°C        1280 mm</tspan></text><g class="cls-5"><polygon class="cls-8" points="130.39 41.71 148.48 16.96 166.79 19.26 185.1 32.61 197.32 41.71 130.39 41.71"/><polygon class="cls-9" points="130.39 41.71 148.48 16.96 166.79 19.26 185.1 32.61 197.32 41.71 130.39 41.71"/><line class="cls-9" x1="23.98" y1="105.12" x2="23.98" y2="108.7"/><line class="cls-9" x1="27.64" y1="97.31" x2="27.64" y2="109.28"/><line class="cls-9" x1="31.3" y1="89.5" x2="31.3" y2="109.87"/><line class="cls-9" x1="34.96" y1="81.68" x2="34.96" y2="110.45"/><line class="cls-9" x1="38.62" y1="73.87" x2="38.62" y2="111.04"/><line class="cls-9" x1="42.29" y1="78.25" x2="42.29" y2="110.01"/><line class="cls-9" x1="45.95" y1="82.62" x2="45.95" y2="108.99"/><line class="cls-9" x1="49.61" y1="86.99" x2="49.61" y2="107.97"/><line class="cls-9" x1="53.27" y1="91.37" x2="53.27" y2="106.95"/><line class="cls-9" x1="56.93" y1="95.73" x2="56.93" y2="105.92"/><line class="cls-9" x1="60.6" y1="95.85" x2="60.6" y2="104.19"/><line class="cls-9" x1="64.26" y1="95.97" x2="64.26" y2="102.46"/><line class="cls-9" x1="67.92" y1="96.09" x2="67.92" y2="100.73"/><line class="cls-9" x1="71.58" y1="96.21" x2="71.58" y2="98.99"/><line class="cls-9" x1="75.24" y1="96.33" x2="75.24" y2="97.26"/><line class="cls-9" x1="122.85" y1="70.35" x2="122.85" y2="78.58"/><line class="cls-9" x1="126.51" y1="57.55" x2="126.51" y2="78.27"/><line class="cls-9" x1="130.17" y1="44.75" x2="130.17" y2="77.96"/><line class="cls-9" x1="133.83" y1="41.71" x2="133.83" y2="78.94"/><line class="cls-9" x1="137.5" y1="41.71" x2="137.5" y2="79.93"/><line class="cls-9" x1="141.16" y1="41.71" x2="141.16" y2="80.91"/><line class="cls-9" x1="144.82" y1="41.71" x2="144.82" y2="81.89"/><line class="cls-9" x1="148.48" y1="41.71" x2="148.48" y2="82.88"/><line class="cls-9" x1="152.14" y1="41.71" x2="152.14" y2="83.19"/><line class="cls-9" x1="155.81" y1="41.71" x2="155.81" y2="83.5"/><line class="cls-9" x1="159.47" y1="41.71" x2="159.47" y2="83.8"/><line class="cls-9" x1="163.13" y1="41.71" x2="163.13" y2="84.11"/><line class="cls-9" x1="166.79" y1="41.71" x2="166.79" y2="84.42"/><line class="cls-9" x1="170.45" y1="41.71" x2="170.45" y2="84.73"/><line class="cls-9" x1="174.12" y1="41.71" x2="174.12" y2="85.04"/><line class="cls-9" x1="177.78" y1="41.71" x2="177.78" y2="85.35"/><line class="cls-9" x1="181.44" y1="41.71" x2="181.44" y2="85.66"/><line class="cls-9" x1="185.1" y1="41.71" x2="185.1" y2="85.96"/><line class="cls-9" x1="188.76" y1="41.71" x2="188.76" y2="87.18"/><line class="cls-9" x1="192.42" y1="41.71" x2="192.42" y2="88.39"/><line class="cls-9" x1="196.09" y1="41.71" x2="196.09" y2="89.6"/><line class="cls-9" x1="199.75" y1="59.82" x2="199.75" y2="90.82"/><line class="cls-9" x1="203.41" y1="87.09" x2="203.41" y2="92.03"/><line class="cls-9" x1="243.69" y1="105.12" x2="243.69" y2="108.7"/><line class="cls-9" x1="247.35" y1="97.31" x2="247.35" y2="109.28"/><line class="cls-9" x1="251.02" y1="89.5" x2="251.02" y2="109.87"/><line class="cls-9" x1="254.68" y1="81.68" x2="254.68" y2="110.45"/><line class="cls-9" x1="258.34" y1="73.87" x2="258.34" y2="111.04"/><line class="cls-10" x1="20.31" y1="112.94" x2="20.31" y2="108.12"/><line class="cls-10" x1="78.91" y1="101.84" x2="78.91" y2="95.15"/><line class="cls-10" x1="82.57" y1="107.36" x2="82.57" y2="93.04"/><line class="cls-10" x1="86.23" y1="112.87" x2="86.23" y2="90.94"/><line class="cls-10" x1="89.89" y1="118.39" x2="89.89" y2="88.83"/><line class="cls-10" x1="93.55" y1="123.9" x2="93.55" y2="86.72"/><line class="cls-10" x1="97.21" y1="120.88" x2="97.21" y2="85.28"/><line class="cls-10" x1="100.88" y1="117.85" x2="100.88" y2="83.83"/><line class="cls-10" x1="104.54" y1="114.82" x2="104.54" y2="82.39"/><line class="cls-10" x1="108.2" y1="111.78" x2="108.2" y2="80.94"/><line class="cls-10" x1="111.86" y1="108.75" x2="111.86" y2="79.5"/><line class="cls-10" x1="115.52" y1="95.95" x2="115.52" y2="79.19"/><line class="cls-10" x1="119.19" y1="83.15" x2="119.19" y2="78.88"/><line class="cls-10" x1="207.07" y1="94.16" x2="207.07" y2="93.85"/><line class="cls-10" x1="210.73" y1="101.23" x2="210.73" y2="95.68"/><line class="cls-10" x1="214.4" y1="108.31" x2="214.4" y2="97.5"/><line class="cls-10" x1="218.06" y1="115.38" x2="218.06" y2="99.33"/><line class="cls-10" x1="221.72" y1="122.45" x2="221.72" y2="101.15"/><line class="cls-10" x1="225.38" y1="120.55" x2="225.38" y2="102.54"/><line class="cls-10" x1="229.04" y1="118.64" x2="229.04" y2="103.94"/><line class="cls-10" x1="232.71" y1="116.74" x2="232.71" y2="105.33"/><line class="cls-10" x1="236.37" y1="114.84" x2="236.37" y2="106.72"/><line class="cls-10" x1="240.03" y1="112.94" x2="240.03" y2="108.12"/><polyline class="cls-11" points="20.31 112.94 38.62 73.88 56.93 95.73 75.24 96.33 93.55 123.9 111.86 108.75 130.17 44.75 130.39 41.71 197.32 41.71 203.41 87.09 221.72 122.45 240.03 112.94 258.34 73.88"/><polyline class="cls-12" points="20.31 108.12 38.62 111.04 56.93 105.92 75.24 97.27 93.55 86.72 111.86 79.5 130.17 77.96 148.48 82.88 166.79 84.42 185.1 85.96 203.41 92.03 221.72 101.15 240.03 108.12 258.34 111.04"/></g><text class="cls-6" transform="translate(0 71.46)">36.0</text><text class="cls-6" transform="translate(3.77 107.88)">6.1</text><g class="cls-5"><line class="cls-2" x1="29.47" y1="132.76" x2="29.47" y2="135.49"/><line class="cls-2" x1="47.78" y1="132.76" x2="47.78" y2="135.49"/><line class="cls-2" x1="66.09" y1="132.76" x2="66.09" y2="135.49"/><line class="cls-2" x1="84.4" y1="132.76" x2="84.4" y2="135.49"/><line class="cls-2" x1="102.71" y1="132.76" x2="102.71" y2="135.49"/><line class="cls-2" x1="121.02" y1="132.76" x2="121.02" y2="135.49"/><line class="cls-2" x1="139.33" y1="132.76" x2="139.33" y2="135.49"/><line class="cls-2" x1="157.64" y1="132.76" x2="157.64" y2="135.49"/><line class="cls-2" x1="175.95" y1="132.76" x2="175.95" y2="135.49"/><line class="cls-2" x1="194.26" y1="132.76" x2="194.26" y2="135.49"/><line class="cls-2" x1="212.57" y1="132.76" x2="212.57" y2="135.49"/><line class="cls-2" x1="230.87" y1="132.76" x2="230.87" y2="135.49"/><line class="cls-2" x1="249.18" y1="132.76" x2="249.18" y2="135.49"/><line class="cls-2" x1="267.49" y1="132.76" x2="267.49" y2="135.49"/></g><text class="cls-6" transform="translate(36.93 146.07)">J</text><text class="cls-6" transform="translate(54.86 146.07)">F</text><text class="cls-6" transform="translate(72.42 146.07)">M</text><text class="cls-6" transform="translate(91.29 146.07)">A</text><text class="cls-6" transform="translate(109.04 146.07)">M</text><text class="cls-6" transform="translate(128.48 146.07)">J</text><text class="cls-6" transform="translate(146.79 146.07)">J</text><text class="cls-6" transform="translate(164.53 146.07)">A</text><text class="cls-6" transform="translate(182.84 146.07)">S</text><text class="cls-6" transform="translate(200.77 146.07)">O</text><text class="cls-6" transform="translate(219.27 146.07)">N</text><text class="cls-6" transform="translate(237.58 146.07)">D</text><line class="cls-2" x1="310.17" y1="132.76" x2="310.17" y2="5.29"/><line class="cls-2" x1="310.17" y1="132.76" x2="306.1" y2="132.76"/><line class="cls-2" x1="310.17" y1="114.55" x2="306.1" y2="114.55"/><line class="cls-2" x1="310.17" y1="96.34" x2="306.1" y2="96.34"/><line class="cls-2" x1="310.17" y1="78.13" x2="306.1" y2="78.13"/><line class="cls-2" x1="310.17" y1="59.92" x2="306.1" y2="59.92"/><line class="cls-2" x1="310.17" y1="41.71" x2="306.1" y2="41.71"/><line class="cls-2" x1="310.17" y1="23.5" x2="306.1" y2="23.5"/><line class="cls-2" x1="310.17" y1="5.29" x2="306.1" y2="5.29"/><text class="cls-3" transform="translate(298.27 135.19)">0</text><text class="cls-3" transform="translate(294.5 116.98)">10</text><text class="cls-3" transform="translate(294.5 98.77)">20</text><text class="cls-3" transform="translate(294.5 80.56)">30</text><text class="cls-3" transform="translate(294.5 62.35)">40</text><text class="cls-3" transform="translate(294.5 44.14)">50</text><line class="cls-2" x1="529.89" y1="132.76" x2="529.89" y2="5.29"/><line class="cls-2" x1="529.89" y1="132.76" x2="533.96" y2="132.76"/><line class="cls-2" x1="529.89" y1="114.55" x2="533.96" y2="114.55"/><line class="cls-2" x1="529.89" y1="96.34" x2="533.96" y2="96.34"/><line class="cls-2" x1="529.89" y1="78.13" x2="533.96" y2="78.13"/><line class="cls-2" x1="529.89" y1="59.92" x2="533.96" y2="59.92"/><line class="cls-2" x1="529.89" y1="41.71" x2="533.96" y2="41.71"/><line class="cls-2" x1="529.89" y1="23.5" x2="533.96" y2="23.5"/><line class="cls-2" x1="529.89" y1="5.29" x2="533.96" y2="5.29"/><text class="cls-4" transform="translate(538.03 135.19)">0</text><text class="cls-4" transform="translate(538.03 116.98)">20</text><text class="cls-4" transform="translate(538.03 98.77)">40</text><text class="cls-4" transform="translate(538.03 80.56)">60</text><text class="cls-4" transform="translate(538.03 62.35)">80</text><text class="cls-4" transform="translate(538.03 44.14)">100</text><text class="cls-4" transform="translate(538.03 25.93)">300</text><text class="cls-4" transform="translate(538.03 7.72)">500</text><text class="cls-3" transform="translate(285.76 35.04)">°C</text><text class="cls-4" transform="translate(543.01 35.04)">mm</text><g class="cls-13"><line class="cls-2" x1="310.17" y1="132.76" x2="529.89" y2="132.76"/><line class="cls-2" x1="310.17" y1="41.71" x2="529.89" y2="41.71"/></g><text class="cls-6" transform="translate(315 13.12)">Chail WLS (900−2100 m)</text><text class="cls-6" transform="translate(439.61 12.91)"><tspan xml:space="preserve">17.1°C        1420 mm</tspan></text><g class="cls-13"><polygon class="cls-8" points="403.49 41.71 410.88 38.86 429.19 13.64 447.5 22.25 465.81 34.45 476.63 41.71 403.49 41.71"/><polygon class="cls-9" points="403.49 41.71 410.88 38.86 429.19 13.64 447.5 22.25 465.81 34.45 476.63 41.71 403.49 41.71"/><line class="cls-9" x1="301.02" y1="98.91" x2="301.02" y2="114.91"/><line class="cls-9" x1="304.68" y1="91.33" x2="304.68" y2="115.6"/><line class="cls-9" x1="308.34" y1="83.74" x2="308.34" y2="116.29"/><line class="cls-9" x1="312" y1="76.16" x2="312" y2="116.98"/><line class="cls-9" x1="315.67" y1="68.57" x2="315.67" y2="117.67"/><line class="cls-9" x1="319.33" y1="60.99" x2="319.33" y2="118.37"/><line class="cls-9" x1="322.99" y1="63.3" x2="322.99" y2="117.53"/><line class="cls-9" x1="326.65" y1="65.61" x2="326.65" y2="116.69"/><line class="cls-9" x1="330.31" y1="67.92" x2="330.31" y2="115.86"/><line class="cls-9" x1="333.98" y1="70.23" x2="333.98" y2="115.02"/><line class="cls-9" x1="337.64" y1="72.54" x2="337.64" y2="114.18"/><line class="cls-9" x1="341.3" y1="72.93" x2="341.3" y2="112.66"/><line class="cls-9" x1="344.96" y1="73.31" x2="344.96" y2="111.14"/><line class="cls-9" x1="348.62" y1="73.7" x2="348.62" y2="109.62"/><line class="cls-9" x1="352.29" y1="74.08" x2="352.29" y2="108.1"/><line class="cls-9" x1="355.95" y1="74.47" x2="355.95" y2="106.58"/><line class="cls-9" x1="359.61" y1="81.01" x2="359.61" y2="104.72"/><line class="cls-9" x1="363.27" y1="87.54" x2="363.27" y2="102.87"/><line class="cls-9" x1="366.93" y1="94.09" x2="366.93" y2="101.01"/><line class="cls-9" x1="385.24" y1="93.13" x2="385.24" y2="93.24"/><line class="cls-9" x1="388.91" y1="88.45" x2="388.91" y2="91.88"/><line class="cls-9" x1="392.57" y1="83.77" x2="392.57" y2="90.52"/><line class="cls-9" x1="396.23" y1="69.66" x2="396.23" y2="90.1"/><line class="cls-9" x1="399.89" y1="55.56" x2="399.89" y2="89.67"/><line class="cls-9" x1="403.55" y1="41.71" x2="403.55" y2="89.24"/><line class="cls-9" x1="407.21" y1="41.71" x2="407.21" y2="88.82"/><line class="cls-9" x1="410.88" y1="41.71" x2="410.88" y2="88.39"/><line class="cls-9" x1="414.54" y1="41.71" x2="414.54" y2="89.1"/><line class="cls-9" x1="418.2" y1="41.71" x2="418.2" y2="89.81"/><line class="cls-9" x1="421.86" y1="41.71" x2="421.86" y2="90.52"/><line class="cls-9" x1="425.52" y1="41.71" x2="425.52" y2="91.23"/><line class="cls-9" x1="429.19" y1="41.71" x2="429.19" y2="91.94"/><line class="cls-9" x1="432.85" y1="41.71" x2="432.85" y2="92.19"/><line class="cls-9" x1="436.51" y1="41.71" x2="436.51" y2="92.43"/><line class="cls-9" x1="440.17" y1="41.71" x2="440.17" y2="92.68"/><line class="cls-9" x1="443.83" y1="41.71" x2="443.83" y2="92.92"/><line class="cls-9" x1="447.5" y1="41.71" x2="447.5" y2="93.17"/><line class="cls-9" x1="451.16" y1="41.71" x2="451.16" y2="93.51"/><line class="cls-9" x1="454.82" y1="41.71" x2="454.82" y2="93.85"/><line class="cls-9" x1="458.48" y1="41.71" x2="458.48" y2="94.19"/><line class="cls-9" x1="462.14" y1="41.71" x2="462.14" y2="94.53"/><line class="cls-9" x1="465.81" y1="41.71" x2="465.81" y2="94.87"/><line class="cls-9" x1="469.47" y1="41.71" x2="469.47" y2="96.02"/><line class="cls-9" x1="473.13" y1="41.71" x2="473.13" y2="97.18"/><line class="cls-9" x1="476.79" y1="42.75" x2="476.79" y2="98.33"/><line class="cls-9" x1="480.45" y1="67.29" x2="480.45" y2="99.49"/><line class="cls-9" x1="484.12" y1="91.82" x2="484.12" y2="100.64"/><line class="cls-9" x1="487.78" y1="97.44" x2="487.78" y2="102.25"/><line class="cls-9" x1="491.44" y1="103.06" x2="491.44" y2="103.87"/><line class="cls-9" x1="513.41" y1="107.32" x2="513.41" y2="112.43"/><line class="cls-9" x1="517.07" y1="103.11" x2="517.07" y2="113.67"/><line class="cls-9" x1="520.73" y1="98.91" x2="520.73" y2="114.91"/><line class="cls-9" x1="524.4" y1="91.33" x2="524.4" y2="115.6"/><line class="cls-9" x1="528.06" y1="83.74" x2="528.06" y2="116.29"/><line class="cls-9" x1="531.72" y1="76.16" x2="531.72" y2="116.98"/><line class="cls-9" x1="535.38" y1="68.57" x2="535.38" y2="117.67"/><line class="cls-9" x1="539.04" y1="60.99" x2="539.04" y2="118.37"/><line class="cls-10" x1="370.6" y1="100.63" x2="370.6" y2="99.16"/><line class="cls-10" x1="374.26" y1="107.17" x2="374.26" y2="97.3"/><line class="cls-10" x1="377.92" y1="102.49" x2="377.92" y2="95.95"/><line class="cls-10" x1="381.58" y1="97.81" x2="381.58" y2="94.59"/><line class="cls-10" x1="495.1" y1="108.69" x2="495.1" y2="105.48"/><line class="cls-10" x1="498.76" y1="114.3" x2="498.76" y2="107.1"/><line class="cls-10" x1="502.42" y1="119.93" x2="502.42" y2="108.71"/><line class="cls-10" x1="506.09" y1="115.72" x2="506.09" y2="109.95"/><line class="cls-10" x1="509.75" y1="111.52" x2="509.75" y2="111.19"/><polyline class="cls-11" points="301.02 98.91 319.33 60.99 337.64 72.54 355.95 74.47 374.26 107.17 392.57 83.77 403.49 41.71 476.63 41.71 484.12 91.82 502.43 119.93 520.73 98.91 539.04 60.99"/><polyline class="cls-12" points="301.02 114.91 319.33 118.37 337.64 114.18 355.95 106.58 374.26 97.3 392.57 90.52 410.88 88.39 429.19 91.94 447.5 93.17 465.81 94.87 484.12 100.64 502.43 108.71 520.73 114.91 539.04 118.37"/></g><text class="cls-6" transform="translate(280.7 71.46)">29.5</text><text class="cls-6" transform="translate(284.47 107.88)">3.0</text><g class="cls-13"><line class="cls-2" x1="310.17" y1="132.76" x2="310.17" y2="135.49"/><line class="cls-2" x1="328.48" y1="132.76" x2="328.48" y2="135.49"/><line class="cls-2" x1="346.79" y1="132.76" x2="346.79" y2="135.49"/><line class="cls-2" x1="365.1" y1="132.76" x2="365.1" y2="135.49"/><line class="cls-2" x1="383.41" y1="132.76" x2="383.41" y2="135.49"/><line class="cls-2" x1="401.72" y1="132.76" x2="401.72" y2="135.49"/><line class="cls-2" x1="420.03" y1="132.76" x2="420.03" y2="135.49"/><line class="cls-2" x1="438.34" y1="132.76" x2="438.34" y2="135.49"/><line class="cls-2" x1="456.65" y1="132.76" x2="456.65" y2="135.49"/><line class="cls-2" x1="474.96" y1="132.76" x2="474.96" y2="135.49"/><line class="cls-2" x1="493.27" y1="132.76" x2="493.27" y2="135.49"/><line class="cls-2" x1="511.58" y1="132.76" x2="511.58" y2="135.49"/><line class="cls-2" x1="529.89" y1="132.76" x2="529.89" y2="135.49"/><line class="cls-2" x1="548.2" y1="132.76" x2="548.2" y2="135.49"/></g><text class="cls-6" transform="translate(317.63 146.07)">J</text><text class="cls-6" transform="translate(335.56 146.07)">F</text><text class="cls-6" transform="translate(353.12 146.07)">M</text><text class="cls-6" transform="translate(372 146.07)">A</text><text class="cls-6" transform="translate(389.74 146.07)">M</text><text class="cls-6" transform="translate(409.18 146.07)">J</text><text class="cls-6" transform="translate(427.49 146.07)">J</text><text class="cls-6" transform="translate(445.24 146.07)">A</text><text class="cls-6" transform="translate(463.54 146.07)">S</text><text class="cls-6" transform="translate(481.48 146.07)">O</text><text class="cls-6" transform="translate(499.98 146.07)">N</text><text class="cls-6" transform="translate(518.29 146.07)">D</text><line class="cls-2" x1="29.64" y1="287.74" x2="29.64" y2="160.36"/><line class="cls-2" x1="29.64" y1="287.74" x2="25.58" y2="287.74"/><line class="cls-2" x1="29.64" y1="269.54" x2="25.58" y2="269.54"/><line class="cls-2" x1="29.64" y1="251.34" x2="25.58" y2="251.34"/><line class="cls-2" x1="29.64" y1="233.15" x2="25.58" y2="233.15"/><line class="cls-2" x1="29.64" y1="214.95" x2="25.58" y2="214.95"/><line class="cls-2" x1="29.64" y1="196.75" x2="25.58" y2="196.75"/><line class="cls-2" x1="29.64" y1="178.55" x2="25.58" y2="178.55"/><line class="cls-2" x1="29.64" y1="160.36" x2="25.58" y2="160.36"/><text class="cls-3" transform="translate(17.74 290.17)">0</text><text class="cls-3" transform="translate(13.98 271.97)">10</text><text class="cls-3" transform="translate(13.98 253.78)">20</text><text class="cls-3" transform="translate(13.98 235.58)">30</text><text class="cls-3" transform="translate(13.98 217.38)">40</text><text class="cls-3" transform="translate(13.98 199.19)">50</text><line class="cls-2" x1="249.2" y1="287.74" x2="249.2" y2="160.36"/><line class="cls-2" x1="249.2" y1="287.74" x2="253.27" y2="287.74"/><line class="cls-2" x1="249.2" y1="269.54" x2="253.27" y2="269.54"/><line class="cls-2" x1="249.2" y1="251.34" x2="253.27" y2="251.34"/><line class="cls-2" x1="249.2" y1="233.15" x2="253.27" y2="233.15"/><line class="cls-2" x1="249.2" y1="214.95" x2="253.27" y2="214.95"/><line class="cls-2" x1="249.2" y1="196.75" x2="253.27" y2="196.75"/><line class="cls-2" x1="249.2" y1="178.55" x2="253.27" y2="178.55"/><line class="cls-2" x1="249.2" y1="160.36" x2="253.27" y2="160.36"/><text class="cls-4" transform="translate(257.33 290.17)">0</text><text class="cls-4" transform="translate(257.33 271.97)">20</text><text class="cls-4" transform="translate(257.33 253.78)">40</text><text class="cls-4" transform="translate(257.33 235.58)">60</text><text class="cls-4" transform="translate(257.33 217.38)">80</text><text class="cls-4" transform="translate(257.33 199.19)">100</text><text class="cls-4" transform="translate(257.33 180.99)">300</text><text class="cls-4" transform="translate(257.33 162.79)">500</text><text class="cls-3" transform="translate(5.25 190.09)">°C</text><text class="cls-4" transform="translate(262.31 190.09)">mm</text><g class="cls-14"><line class="cls-2" x1="29.64" y1="287.74" x2="249.2" y2="287.74"/><line class="cls-2" x1="29.64" y1="196.75" x2="249.2" y2="196.75"/></g><text class="cls-6" transform="translate(34.47 168.19)">Churdhar WLS (1600−3600 m)</text><text class="cls-6" transform="translate(158.97 168.41)"><tspan xml:space="preserve">10.7°C        1403 mm</tspan></text><g class="cls-14"><polygon class="cls-8" points="38.47 196.75 38.79 196.66 39.66 196.75 38.47 196.75"/><polygon class="cls-9" points="38.47 196.75 38.79 196.66 39.66 196.75 38.47 196.75"/><polygon class="cls-8" points="127.44 196.75 130.27 196.13 148.57 175.87 166.87 180.81 185.16 188.37 197.77 196.75 127.44 196.75"/><polygon class="cls-9" points="127.44 196.75 130.27 196.13 148.57 175.87 166.87 180.81 185.16 188.37 197.77 196.75 127.44 196.75"/><polygon class="cls-8" points="258.03 196.75 258.35 196.66 258.35 196.75 258.03 196.75"/><polygon class="cls-9" points="258.03 196.75 258.35 196.66 258.35 196.75 258.03 196.75"/><line class="cls-9" x1="20.49" y1="247.4" x2="20.49" y2="279.48"/><line class="cls-9" x1="24.15" y1="237.1" x2="24.15" y2="280.41"/><line class="cls-9" x1="27.81" y1="226.79" x2="27.81" y2="281.33"/><line class="cls-9" x1="31.47" y1="216.48" x2="31.47" y2="282.26"/><line class="cls-9" x1="35.13" y1="206.17" x2="35.13" y2="283.18"/><line class="cls-9" x1="38.79" y1="196.75" x2="38.79" y2="284.11"/><line class="cls-9" x1="42.45" y1="199.57" x2="42.45" y2="283.57"/><line class="cls-9" x1="46.11" y1="203.26" x2="46.11" y2="283.03"/><line class="cls-9" x1="49.77" y1="206.96" x2="49.77" y2="282.49"/><line class="cls-9" x1="53.43" y1="210.66" x2="53.43" y2="281.95"/><line class="cls-9" x1="57.09" y1="214.36" x2="57.09" y2="281.41"/><line class="cls-9" x1="60.75" y1="212.2" x2="60.75" y2="280.02"/><line class="cls-9" x1="64.4" y1="210.05" x2="64.4" y2="278.63"/><line class="cls-9" x1="68.06" y1="207.9" x2="68.06" y2="277.24"/><line class="cls-9" x1="71.72" y1="205.74" x2="71.72" y2="275.85"/><line class="cls-9" x1="75.38" y1="203.59" x2="75.38" y2="274.46"/><line class="cls-9" x1="79.04" y1="212.87" x2="79.04" y2="272.71"/><line class="cls-9" x1="82.7" y1="222.15" x2="82.7" y2="270.95"/><line class="cls-9" x1="86.36" y1="231.43" x2="86.36" y2="269.2"/><line class="cls-9" x1="90.02" y1="240.71" x2="90.02" y2="267.44"/><line class="cls-9" x1="93.68" y1="249.99" x2="93.68" y2="265.68"/><line class="cls-9" x1="97.34" y1="246.12" x2="97.34" y2="264.41"/><line class="cls-9" x1="101" y1="242.25" x2="101" y2="263.14"/><line class="cls-9" x1="104.66" y1="238.37" x2="104.66" y2="261.87"/><line class="cls-9" x1="108.32" y1="234.5" x2="108.32" y2="260.6"/><line class="cls-9" x1="111.98" y1="230.63" x2="111.98" y2="259.33"/><line class="cls-9" x1="115.64" y1="222.61" x2="115.64" y2="258.72"/><line class="cls-9" x1="119.3" y1="214.6" x2="119.3" y2="258.1"/><line class="cls-9" x1="122.95" y1="206.59" x2="122.95" y2="257.49"/><line class="cls-9" x1="126.61" y1="198.57" x2="126.61" y2="256.88"/><line class="cls-9" x1="130.27" y1="196.75" x2="130.27" y2="256.26"/><line class="cls-9" x1="133.93" y1="196.75" x2="133.93" y2="256.64"/><line class="cls-9" x1="137.59" y1="196.75" x2="137.59" y2="257.01"/><line class="cls-9" x1="141.25" y1="196.75" x2="141.25" y2="257.39"/><line class="cls-9" x1="144.91" y1="196.75" x2="144.91" y2="257.77"/><line class="cls-9" x1="148.57" y1="196.75" x2="148.57" y2="258.14"/><line class="cls-9" x1="152.23" y1="196.75" x2="152.23" y2="258.27"/><line class="cls-9" x1="155.89" y1="196.75" x2="155.89" y2="258.39"/><line class="cls-9" x1="159.55" y1="196.75" x2="159.55" y2="258.52"/><line class="cls-9" x1="163.21" y1="196.75" x2="163.21" y2="258.65"/><line class="cls-9" x1="166.87" y1="196.75" x2="166.87" y2="258.77"/><line class="cls-9" x1="170.53" y1="196.75" x2="170.53" y2="259.17"/><line class="cls-9" x1="174.19" y1="196.75" x2="174.19" y2="259.56"/><line class="cls-9" x1="177.84" y1="196.75" x2="177.84" y2="259.95"/><line class="cls-9" x1="181.5" y1="196.75" x2="181.5" y2="260.34"/><line class="cls-9" x1="185.16" y1="196.75" x2="185.16" y2="260.73"/><line class="cls-9" x1="188.82" y1="196.75" x2="188.82" y2="261.89"/><line class="cls-9" x1="192.48" y1="196.75" x2="192.48" y2="263.05"/><line class="cls-9" x1="196.14" y1="196.75" x2="196.14" y2="264.2"/><line class="cls-9" x1="199.8" y1="210.28" x2="199.8" y2="265.36"/><line class="cls-9" x1="203.46" y1="234.61" x2="203.46" y2="266.51"/><line class="cls-9" x1="207.12" y1="241.85" x2="207.12" y2="267.95"/><line class="cls-9" x1="210.78" y1="249.1" x2="210.78" y2="269.39"/><line class="cls-9" x1="214.44" y1="256.34" x2="214.44" y2="270.83"/><line class="cls-9" x1="218.1" y1="263.59" x2="218.1" y2="272.27"/><line class="cls-9" x1="221.76" y1="270.83" x2="221.76" y2="273.71"/><line class="cls-9" x1="225.42" y1="266.15" x2="225.42" y2="274.87"/><line class="cls-9" x1="229.08" y1="261.46" x2="229.08" y2="276.02"/><line class="cls-9" x1="232.73" y1="256.78" x2="232.73" y2="277.17"/><line class="cls-9" x1="236.39" y1="252.09" x2="236.39" y2="278.33"/><line class="cls-9" x1="240.05" y1="247.4" x2="240.05" y2="279.48"/><line class="cls-9" x1="243.71" y1="237.1" x2="243.71" y2="280.41"/><line class="cls-9" x1="247.37" y1="226.79" x2="247.37" y2="281.33"/><line class="cls-9" x1="251.03" y1="216.48" x2="251.03" y2="282.26"/><line class="cls-9" x1="254.69" y1="206.17" x2="254.69" y2="283.18"/><line class="cls-9" x1="258.35" y1="196.75" x2="258.35" y2="284.11"/><rect class="cls-15" x="29.64" y="287.74" width="18.3" height="2.73"/><rect class="cls-2" x="29.64" y="287.74" width="18.3" height="2.73"/><rect class="cls-15" x="47.94" y="287.74" width="18.3" height="2.73"/><rect class="cls-2" x="47.94" y="287.74" width="18.3" height="2.73"/><polyline class="cls-11" points="20.49 247.4 38.47 196.75 39.66 196.75 57.09 214.36 75.38 203.59 93.68 249.99 111.98 230.63 127.44 196.75 197.77 196.75 203.46 234.61 221.76 270.83 240.05 247.4 258.03 196.75 258.35 196.75"/><polyline class="cls-12" points="20.49 279.48 38.79 284.11 57.09 281.41 75.38 274.46 93.68 265.68 111.98 259.33 130.27 256.26 148.57 258.14 166.87 258.77 185.16 260.73 203.46 266.51 221.76 273.71 240.05 279.48 258.35 284.11"/></g><text class="cls-6" transform="translate(0.19 226.48)">21.6</text><text class="cls-6" transform="translate(0 262.88)">−2.0</text><g class="cls-14"><line class="cls-2" x1="29.64" y1="287.74" x2="29.64" y2="290.47"/><line class="cls-2" x1="47.94" y1="287.74" x2="47.94" y2="290.47"/><line class="cls-2" x1="66.23" y1="287.74" x2="66.23" y2="290.47"/><line class="cls-2" x1="84.53" y1="287.74" x2="84.53" y2="290.47"/><line class="cls-2" x1="102.83" y1="287.74" x2="102.83" y2="290.47"/><line class="cls-2" x1="121.12" y1="287.74" x2="121.12" y2="290.47"/><line class="cls-2" x1="139.42" y1="287.74" x2="139.42" y2="290.47"/><line class="cls-2" x1="157.72" y1="287.74" x2="157.72" y2="290.47"/><line class="cls-2" x1="176.01" y1="287.74" x2="176.01" y2="290.47"/><line class="cls-2" x1="194.31" y1="287.74" x2="194.31" y2="290.47"/><line class="cls-2" x1="212.61" y1="287.74" x2="212.61" y2="290.47"/><line class="cls-2" x1="230.91" y1="287.74" x2="230.91" y2="290.47"/><line class="cls-2" x1="249.2" y1="287.74" x2="249.2" y2="290.47"/><line class="cls-2" x1="267.5" y1="287.74" x2="267.5" y2="290.47"/></g><text class="cls-6" transform="translate(37.1 301.04)">J</text><text class="cls-6" transform="translate(55.01 301.04)">F</text><text class="cls-6" transform="translate(72.56 301.04)">M</text><text class="cls-6" transform="translate(91.42 301.04)">A</text><text class="cls-6" transform="translate(109.15 301.04)">M</text><text class="cls-6" transform="translate(128.58 301.04)">J</text><text class="cls-6" transform="translate(146.88 301.04)">J</text><text class="cls-6" transform="translate(164.61 301.04)">A</text><text class="cls-6" transform="translate(182.91 301.04)">S</text><text class="cls-6" transform="translate(200.82 301.04)">O</text><text class="cls-6" transform="translate(219.31 301.04)">N</text><text class="cls-6" transform="translate(237.61 301.04)">D</text><line class="cls-2" x1="310.17" y1="287.73" x2="310.17" y2="160.26"/><line class="cls-2" x1="310.17" y1="287.73" x2="306.11" y2="287.73"/><line class="cls-2" x1="310.17" y1="269.52" x2="306.11" y2="269.52"/><line class="cls-2" x1="310.17" y1="251.31" x2="306.11" y2="251.31"/><line class="cls-2" x1="310.17" y1="233.1" x2="306.11" y2="233.1"/><line class="cls-2" x1="310.17" y1="214.89" x2="306.11" y2="214.89"/><line class="cls-2" x1="310.17" y1="196.68" x2="306.11" y2="196.68"/><line class="cls-2" x1="310.17" y1="178.47" x2="306.11" y2="178.47"/><line class="cls-2" x1="310.17" y1="160.26" x2="306.11" y2="160.26"/><text class="cls-3" transform="translate(298.27 290.16)">0</text><text class="cls-3" transform="translate(294.5 271.96)">10</text><text class="cls-3" transform="translate(294.5 253.75)">20</text><text class="cls-3" transform="translate(294.5 235.53)">30</text><text class="cls-3" transform="translate(294.5 217.32)">40</text><text class="cls-3" transform="translate(294.5 199.12)">50</text><line class="cls-2" x1="529.89" y1="287.73" x2="529.89" y2="160.26"/><line class="cls-2" x1="529.89" y1="287.73" x2="533.96" y2="287.73"/><line class="cls-2" x1="529.89" y1="269.52" x2="533.96" y2="269.52"/><line class="cls-2" x1="529.89" y1="251.31" x2="533.96" y2="251.31"/><line class="cls-2" x1="529.89" y1="233.1" x2="533.96" y2="233.1"/><line class="cls-2" x1="529.89" y1="214.89" x2="533.96" y2="214.89"/><line class="cls-2" x1="529.89" y1="196.68" x2="533.96" y2="196.68"/><line class="cls-2" x1="529.89" y1="178.47" x2="533.96" y2="178.47"/><line class="cls-2" x1="529.89" y1="160.26" x2="533.96" y2="160.26"/><text class="cls-4" transform="translate(538.03 290.16)">0</text><text class="cls-4" transform="translate(538.03 271.96)">20</text><text class="cls-4" transform="translate(538.03 253.75)">40</text><text class="cls-4" transform="translate(538.03 235.53)">60</text><text class="cls-4" transform="translate(538.03 217.32)">80</text><text class="cls-4" transform="translate(538.03 199.12)">100</text><text class="cls-4" transform="translate(538.03 180.9)">300</text><text class="cls-4" transform="translate(538.03 162.7)">500</text><text class="cls-3" transform="translate(285.76 190.01)">°C</text><text class="cls-4" transform="translate(543.01 190.01)">mm</text><g class="cls-16"><line class="cls-2" x1="310.17" y1="287.73" x2="529.89" y2="287.73"/><line class="cls-2" x1="310.17" y1="196.68" x2="529.89" y2="196.68"/></g><text class="cls-6" transform="translate(315 168.09)">All Sites (300−3600 m)</text><text class="cls-6" transform="translate(439.61 168.32)"><tspan xml:space="preserve">18.1°C        1340 mm</tspan></text><g class="cls-16"><polygon class="cls-8" points="409.13 196.68 410.88 196.12 429.19 172.27 447.5 176.51 465.81 188.14 477.86 196.68 409.13 196.68"/><polygon class="cls-9" points="409.13 196.68 410.88 196.12 429.19 172.27 447.5 176.51 465.81 188.14 477.86 196.68 409.13 196.68"/><line class="cls-9" x1="301.02" y1="259.79" x2="301.02" y2="268.69"/><line class="cls-9" x1="304.68" y1="251.37" x2="304.68" y2="269.38"/><line class="cls-9" x1="308.34" y1="242.95" x2="308.34" y2="270.08"/><line class="cls-9" x1="312.01" y1="234.54" x2="312.01" y2="270.77"/><line class="cls-9" x1="315.67" y1="226.12" x2="315.67" y2="271.47"/><line class="cls-9" x1="319.33" y1="217.71" x2="319.33" y2="272.16"/><line class="cls-9" x1="322.99" y1="221.5" x2="322.99" y2="271.3"/><line class="cls-9" x1="326.65" y1="225.28" x2="326.65" y2="270.44"/><line class="cls-9" x1="330.31" y1="229.07" x2="330.31" y2="269.58"/><line class="cls-9" x1="333.98" y1="232.85" x2="333.98" y2="268.72"/><line class="cls-9" x1="337.64" y1="236.65" x2="337.64" y2="267.86"/><line class="cls-9" x1="341.3" y1="236.23" x2="341.3" y2="266.26"/><line class="cls-9" x1="344.96" y1="235.81" x2="344.96" y2="264.65"/><line class="cls-9" x1="348.62" y1="235.39" x2="348.62" y2="263.05"/><line class="cls-9" x1="352.29" y1="234.97" x2="352.29" y2="261.45"/><line class="cls-9" x1="355.95" y1="234.55" x2="355.95" y2="259.85"/><line class="cls-9" x1="359.61" y1="241.25" x2="359.61" y2="257.88"/><line class="cls-9" x1="363.27" y1="247.95" x2="363.27" y2="255.92"/><line class="cls-9" x1="396.23" y1="238.34" x2="396.23" y2="242.7"/><line class="cls-9" x1="399.89" y1="226.51" x2="399.89" y2="242.29"/><line class="cls-9" x1="403.55" y1="214.69" x2="403.55" y2="241.87"/><line class="cls-9" x1="407.21" y1="202.87" x2="407.21" y2="241.47"/><line class="cls-9" x1="410.88" y1="196.68" x2="410.88" y2="241.05"/><line class="cls-9" x1="414.54" y1="196.68" x2="414.54" y2="241.82"/><line class="cls-9" x1="418.2" y1="196.68" x2="418.2" y2="242.6"/><line class="cls-9" x1="421.86" y1="196.68" x2="421.86" y2="243.37"/><line class="cls-9" x1="425.52" y1="196.68" x2="425.52" y2="244.14"/><line class="cls-9" x1="429.19" y1="196.68" x2="429.19" y2="244.91"/><line class="cls-9" x1="432.85" y1="196.68" x2="432.85" y2="245.16"/><line class="cls-9" x1="436.51" y1="196.68" x2="436.51" y2="245.41"/><line class="cls-9" x1="440.17" y1="196.68" x2="440.17" y2="245.66"/><line class="cls-9" x1="443.83" y1="196.68" x2="443.83" y2="245.91"/><line class="cls-9" x1="447.5" y1="196.68" x2="447.5" y2="246.16"/><line class="cls-9" x1="451.16" y1="196.68" x2="451.16" y2="246.49"/><line class="cls-9" x1="454.82" y1="196.68" x2="454.82" y2="246.83"/><line class="cls-9" x1="458.48" y1="196.68" x2="458.48" y2="247.16"/><line class="cls-9" x1="462.14" y1="196.68" x2="462.14" y2="247.5"/><line class="cls-9" x1="465.81" y1="196.68" x2="465.81" y2="247.83"/><line class="cls-9" x1="469.47" y1="196.68" x2="469.47" y2="249.02"/><line class="cls-9" x1="473.13" y1="196.68" x2="473.13" y2="250.21"/><line class="cls-9" x1="476.79" y1="196.68" x2="476.79" y2="251.4"/><line class="cls-9" x1="480.45" y1="215.09" x2="480.45" y2="252.58"/><line class="cls-9" x1="484.12" y1="241.06" x2="484.12" y2="253.77"/><line class="cls-9" x1="487.78" y1="247.89" x2="487.78" y2="255.45"/><line class="cls-9" x1="491.44" y1="254.72" x2="491.44" y2="257.14"/><line class="cls-9" x1="513.41" y1="265.95" x2="513.41" y2="266.09"/><line class="cls-9" x1="517.07" y1="262.87" x2="517.07" y2="267.39"/><line class="cls-9" x1="520.73" y1="259.79" x2="520.73" y2="268.69"/><line class="cls-9" x1="524.4" y1="251.37" x2="524.4" y2="269.38"/><line class="cls-9" x1="528.06" y1="242.95" x2="528.06" y2="270.08"/><line class="cls-9" x1="531.72" y1="234.54" x2="531.72" y2="270.77"/><line class="cls-9" x1="535.38" y1="226.12" x2="535.38" y2="271.47"/><line class="cls-9" x1="539.04" y1="217.71" x2="539.04" y2="272.16"/><line class="cls-10" x1="366.93" y1="254.64" x2="366.93" y2="253.95"/><line class="cls-10" x1="370.6" y1="261.34" x2="370.6" y2="251.98"/><line class="cls-10" x1="374.26" y1="268.04" x2="374.26" y2="250.02"/><line class="cls-10" x1="377.92" y1="264.46" x2="377.92" y2="248.64"/><line class="cls-10" x1="381.58" y1="260.88" x2="381.58" y2="247.25"/><line class="cls-10" x1="385.24" y1="257.31" x2="385.24" y2="245.87"/><line class="cls-10" x1="388.91" y1="253.73" x2="388.91" y2="244.49"/><line class="cls-10" x1="392.57" y1="250.15" x2="392.57" y2="243.11"/><line class="cls-10" x1="495.1" y1="261.54" x2="495.1" y2="258.82"/><line class="cls-10" x1="498.76" y1="268.38" x2="498.76" y2="260.5"/><line class="cls-10" x1="502.42" y1="275.2" x2="502.42" y2="262.18"/><line class="cls-10" x1="506.09" y1="272.12" x2="506.09" y2="263.48"/><line class="cls-10" x1="509.75" y1="269.04" x2="509.75" y2="264.79"/><polyline class="cls-11" points="301.02 259.79 319.33 217.71 337.64 236.65 355.95 234.56 374.26 268.04 392.57 250.15 409.13 196.68 477.86 196.68 484.12 241.06 502.43 275.2 520.73 259.79 539.04 217.71"/><polyline class="cls-12" points="301.02 268.69 319.33 272.16 337.64 267.86 355.95 259.85 374.26 250.02 392.57 243.1 410.88 241.05 429.19 244.91 447.5 246.16 465.81 247.84 484.12 253.77 502.43 262.18 520.73 268.69 539.04 272.16"/></g><text class="cls-6" transform="translate(280.7 226.43)">31.0</text><text class="cls-6" transform="translate(284.47 262.85)">3.4</text><g class="cls-16"><line class="cls-2" x1="310.17" y1="287.73" x2="310.17" y2="290.46"/><line class="cls-2" x1="328.48" y1="287.73" x2="328.48" y2="290.46"/><line class="cls-2" x1="346.79" y1="287.73" x2="346.79" y2="290.46"/><line class="cls-2" x1="365.1" y1="287.73" x2="365.1" y2="290.46"/><line class="cls-2" x1="383.41" y1="287.73" x2="383.41" y2="290.46"/><line class="cls-2" x1="401.72" y1="287.73" x2="401.72" y2="290.46"/><line class="cls-2" x1="420.03" y1="287.73" x2="420.03" y2="290.46"/><line class="cls-2" x1="438.34" y1="287.73" x2="438.34" y2="290.46"/><line class="cls-2" x1="456.65" y1="287.73" x2="456.65" y2="290.46"/><line class="cls-2" x1="474.96" y1="287.73" x2="474.96" y2="290.46"/><line class="cls-2" x1="493.27" y1="287.73" x2="493.27" y2="290.46"/><line class="cls-2" x1="511.58" y1="287.73" x2="511.58" y2="290.46"/><line class="cls-2" x1="529.89" y1="287.73" x2="529.89" y2="290.46"/><line class="cls-2" x1="548.2" y1="287.73" x2="548.2" y2="290.46"/></g><text class="cls-6" transform="translate(317.63 301.04)">J</text><text class="cls-6" transform="translate(335.56 301.04)">F</text><text class="cls-6" transform="translate(353.12 301.04)">M</text><text class="cls-6" transform="translate(372 301.04)">A</text><text class="cls-6" transform="translate(389.74 301.04)">M</text><text class="cls-6" transform="translate(409.18 301.04)">J</text><text class="cls-6" transform="translate(427.49 301.04)">J</text><text class="cls-6" transform="translate(445.24 301.04)">A</text><text class="cls-6" transform="translate(463.54 301.04)">S</text><text class="cls-6" transform="translate(481.48 301.04)">O</text><text class="cls-6" transform="translate(499.98 301.04)">N</text><text class="cls-6" transform="translate(518.29 301.04)">D</text></svg>